<svg xmlns="http://www.w3.org/2000/svg" width="360" height="140" viewBox="0 0 360 140">
  <g fill="none" fill-rule="evenodd" transform="translate(43 29)">
    <path fill="#2E3842" d="M28.1519978,30.0773014 C27.0018918,30.7400634 25.7614477,31.2319062 24.4696689,31.5373646 C23.2002465,31.827917 21.9014908,31.9707469 20.5992642,31.9630101 C18.7694777,31.9722696 16.9543508,31.636446 15.2489988,30.9731368 C12.0988886,29.7769871 9.58854056,27.3240185 8.31988541,24.2024031 C7.65644281,22.5644204 7.32015816,20.8123774 7.33001207,19.045163 C7.31799054,17.2552854 7.65418971,15.4801539 8.31988541,13.8186318 C8.94194077,12.2832057 9.87944699,10.8954941 11.0717333,9.74530302 C12.2786302,8.57996049 13.7122991,7.67528343 15.2836443,7.08749311 C17.0054493,6.45113882 18.8280047,6.1308922 20.6636059,6.14216407 C24.4813686,6.06392004 28.1561693,7.59418895 30.7900102,10.3590245 L35.0860605,6.16196153 C33.346901,4.19651876 31.1676295,2.67018076 28.7261243,1.70753151 C23.4689658,-0.276684878 17.6751996,-0.313554299 12.3932142,1.60359481 C10.0567724,2.48468305 7.9173174,3.81847853 6.09761977,5.5284426 C4.32499928,7.21337568 2.91822775,9.24519181 1.96489858,11.4973788 C-0.0215124892,16.3537583 -0.0215124892,21.7959602 1.96489858,26.6523396 C2.91487778,28.8983206 4.31652491,30.924981 6.08277167,32.6064278 C7.88822285,34.315305 10.0145428,35.6493017 12.3387712,36.5312756 C14.8625724,37.4768515 17.5379377,37.9532175 20.233011,37.9368957 C21.9736367,37.9377022 23.7098543,37.7619247 25.414998,37.4122628 C27.103303,37.0745826 28.7496615,36.553457 30.3247697,35.8581617 C31.8584699,35.1883873 33.2964524,34.3179419 34.6010226,33.2696429 L34.6010226,18.6442643 L28.1668459,18.6442643 L28.1668459,30.0773014 L28.1519978,30.0773014 Z M79.1304747,0.707759437 L79.1304747,25.5684283 L58.8875649,0.707759437 L53.2551856,0.707759437 L53.2551856,37.4172122 L60.0209699,37.4172122 L60.0209699,12.5614927 L80.2836771,37.4172122 L85.8764615,37.4172122 L85.8764615,0.707759437 L79.1304747,0.707759437 Z M132.925141,37.4172122 L140.057179,37.4172122 L123.486699,0.707759437 L116.750611,0.707759437 L100.234574,37.4172122 L107.262675,37.4172122 L110.880662,28.924099 L129.232914,28.924099 L132.905344,37.4172122 L132.925141,37.4172122 Z M113.206864,23.5589855 L120.076585,7.51313864 L127.005699,23.5589855 L113.206864,23.5589855 Z M185.774479,37.4172122 L177.291264,25.3556056 C179.628568,24.4996177 181.645362,22.9442496 183.067175,20.9011755 C184.45421,18.7800089 185.165223,16.2880111 185.106314,13.75429 C185.165409,11.2929548 184.51417,8.86670437 183.230504,6.76578427 C181.911568,4.78469587 180.038808,3.23553735 177.845593,2.31135425 C175.208444,1.20137912 172.366375,0.661638914 169.505911,0.727556904 L154.395494,0.727556904 L154.395494,37.4370097 L161.210772,37.4370097 L161.210772,26.7216308 L169.496012,26.7216308 C169.733581,26.7216308 169.990948,26.7216308 170.203771,26.7216308 C170.440312,26.7192753 170.676562,26.7044065 170.911531,26.6770865 L178.409821,37.4271109 L185.774479,37.4172122 Z M178.281138,13.7691381 C178.324143,15.1596571 177.968666,16.5334823 177.256619,17.7286315 C176.528339,18.8610937 175.466523,19.7395993 174.217708,20.2429098 C172.623007,20.8651587 170.920183,21.1629845 169.208949,21.1189477 L161.210772,21.1189477 L161.210772,6.478721 L169.184202,6.478721 C170.896428,6.43352104 172.600125,6.73486676 174.192961,7.36465764 C175.440312,7.85057489 176.503379,8.71626468 177.231872,9.83934099 C177.949659,11.0222248 178.313762,12.3858926 178.281138,13.7691381 L178.281138,13.7691381 Z" transform="translate(87.604 22.272)"/>
    <polygon fill="#0DEA9D" points="64.391 20.782 35.799 4.271 3.702 22.807 3.702 59.868 35.799 78.398 67.895 59.868 67.895 45.257 35.799 26.727 23.148 34.032 23.148 48.637 35.799 55.943 48.444 48.637 48.444 40.986 52.147 43.124 52.147 50.776 35.799 60.214 19.446 50.776 19.446 31.894 35.799 22.455 71.593 43.124 71.593 62.001 35.799 82.669 0 62.001 0 20.669 35.799 0 71.796 20.782 60.021 27.583 56.319 25.445"/>
  </g>
</svg>
