<svg width="32" height="32" viewBox="0 0 32 32" fill="none" xmlns="http://www.w3.org/2000/svg">
<rect width="32" height="32" rx="4" fill="#00EC9D"/>
<path d="M15.9686 22.1954C15.8581 22.1878 15.7639 22.0774 15.7718 21.9678L15.7793 8.75775L11.7165 12.8418C11.6693 12.8969 11.5905 12.9203 11.5119 12.9047C11.3545 12.8812 11.2838 12.6374 11.4015 12.5276L15.8425 8.05891C15.9213 7.98036 16.079 7.98036 16.1575 8.05891L20.5982 12.5276C20.6927 12.6061 20.7005 12.7711 20.6142 12.8574C20.5278 12.9438 20.3623 12.936 20.2835 12.8418L16.2204 8.75775L16.2126 21.9754C16.2126 22.1011 16.0868 22.2113 15.9686 22.1954ZM8.19679 20.6432C8.08666 20.6591 8 20.7611 8 20.8632V22.7162C8 23.7611 8.8428 24.6173 9.88995 24.6173H22.1103C23.1575 24.6173 24 23.7611 24 22.7162V20.8632C24 20.7452 23.8977 20.6432 23.7797 20.6432C23.6615 20.6432 23.5513 20.7452 23.5592 20.8632V22.7162C23.5592 23.5255 22.9134 24.1774 22.1103 24.1774H9.88967C9.08656 24.1774 8.44083 23.5255 8.44083 22.7162V20.8632C8.44111 20.7371 8.32286 20.6272 8.19679 20.6432Z" fill="#263043"/>
</svg>
